
<svg width="361px" height="256px" viewBox="599 182 361 256" version="1.1" xmlns="http://www.w3.org/2000/svg" xmlns:xlink="http://www.w3.org/1999/xlink">
    <!-- Generator: Sketch 42 (36781) - http://www.bohemiancoding.com/sketch -->
    <desc>Created with Sketch.</desc>
    <defs>
        <rect id="path-1" x="599" y="182" width="361" height="256"></rect>
        <mask id="mask-2" maskContentUnits="userSpaceOnUse" maskUnits="objectBoundingBox" x="0" y="0" width="361" height="256" fill="white">
            <use xlink:href="#path-1"></use>
        </mask>
    </defs>
    <use id="Rectangle-2" stroke="#3E3E3F" mask="url(#mask-2)" stroke-width="10" fill="#FFFFFF" fill-rule="evenodd" xlink:href="#path-1"></use>
    <g id="1489231696_Cloud-Music" stroke="none" stroke-width="1" fill="none" fill-rule="evenodd" transform="translate(720.000000, 255.000000)">
        <g id="Multicolor" fill-rule="nonzero">
            <ellipse id="Oval" fill="#25B7D3" cx="54.2142857" cy="53.8283208" rx="54.2142857" ry="53.8283208"></ellipse>
            <g id="Group" transform="translate(10.100000, 18.567669)">
                <path d="M77.7308971,27.9732548 C79.3951711,13.1069366 64.7331807,0.401588792 49.9698624,0.401588792 C37.0276681,0.401588792 23.6079839,10.172813 22.3365285,22.6907298 C10.3062841,20.8963526 0,30.1741921 0,41.7466843 C0,52.4026936 8.70030827,61.0410622 19.4327243,61.0410622 L72.1786902,61.0410622 C81.377309,61.0410622 88.835311,53.6361556 88.835311,44.503024 C88.835311,35.2210501 81.8950523,27.9732548 77.7308971,27.9732548 Z" id="Shape" fill="#F0F1F1"></path>
                <path d="M49.9698624,0.401588792 C37.0276681,0.401588792 23.6079839,10.172813 22.3365285,22.6907298 C10.3062841,20.8963526 0,30.1741921 0,41.7466843 C0,52.4026936 8.70030827,61.0410622 19.4327243,61.0410622 L20.4695989,61.0410622 L71.6082009,10.2665286 C66.2503212,4.28527143 58.1274425,0.401588792 49.9698624,0.401588792 Z" id="Shape" fill="#FFFFFF"></path>
                <path d="M29.4938214,16.4438049 L29.4938214,53.1670496 C22.070389,51.4287045 14.3516849,55.0801688 14.3516849,60.2482218 C14.3516849,64.3995778 19.43755,67.7653897 25.7082873,67.7653897 C31.9790245,67.7653897 37.0648896,64.3995778 37.0648896,60.2482218 L37.0648896,21.3600327 L59.7780944,11.4937498 L59.7780944,38.1308344 C52.354662,36.3924893 44.6359579,40.0439536 44.6359579,45.2120066 C44.6359579,49.3633626 49.721823,52.7291745 55.9925603,52.7291745 C62.2632976,52.7291745 67.3491627,49.3633626 67.3491627,45.2120066 L67.3491627,0 L29.4938214,16.4438049 Z" id="Shape" fill="#3E3E3F"></path>
            </g>
        </g>
        <g id="Group-2" transform="translate(81.888073, 71.000000)">
            <path d="M18.8938482,36.3076924 C8.46312679,36.2839585 0.0246978408,28.1748537 0,18.1564833 C0.0246978408,8.13283872 8.46312679,0.0237339651 18.8938482,0 C29.3190813,0.0237339651 37.7575102,8.13283872 37.7822081,18.1564833 C37.7575102,28.1748537 29.3190813,36.2839585 18.8938482,36.3076924 Z" id="Path" stroke="#3E3E3F" stroke-width="4"></path>
            <polygon id="Shape" fill="#3E3E3F" fill-rule="nonzero" points="32.6310546 15.3705679 22.0123024 15.3705679 22.0123024 4.82213895 16.6949582 4.82213895 16.6949582 15.3705679 6.07089388 15.3705679 6.07089388 20.6447824 16.6949582 20.6447824 16.6949582 31.1932113 22.0123024 31.1932113 22.0123024 20.6447824 32.6310546 20.6447824"></polygon>
        </g>
    </g>
    <text id="Create-a-New-Karaoke" stroke="none" fill="none" font-family="FranklinGothic-Medium, Franklin Gothic Medium" font-size="18" font-weight="normal">
        <tspan x="668" y="394" fill="#3E3E3F">Create a New Karaoke Room</tspan>
    </text>
</svg>