
<svg width="122px" height="112px" viewBox="190 253 122 112" version="1.1" xmlns="http://www.w3.org/2000/svg" xmlns:xlink="http://www.w3.org/1999/xlink">
    <!-- Generator: Sketch 42 (36781) - http://www.bohemiancoding.com/sketch -->
    <desc>Created with Sketch.</desc>
    <defs></defs>
    <g id="1489232363_Surfer" stroke="none" stroke-width="1" fill="none" fill-rule="evenodd" transform="translate(190.000000, 253.000000)">
        <g id="Multicolor" fill-rule="nonzero" fill="#E04F5F">
            <circle id="Oval" cx="55" cy="55" r="55"></circle>
        </g>
        <g id="Group-2" transform="translate(81.888073, 73.000000)">
            <path d="M18.8938482,36.3076924 C8.46312679,36.2839585 0.0246978408,28.1748537 0,18.1564833 C0.0246978408,8.13283872 8.46312679,0.0237339651 18.8938482,0 C29.3190813,0.0237339651 37.7575102,8.13283872 37.7822081,18.1564833 C37.7575102,28.1748537 29.3190813,36.2839585 18.8938482,36.3076924 Z" id="Path" stroke="#3E3E3F" stroke-width="4"></path>
            <polygon id="Shape" fill="#3E3E3F" fill-rule="nonzero" points="32.6310546 15.3705679 22.0123024 15.3705679 22.0123024 4.82213895 16.6949582 4.82213895 16.6949582 15.3705679 6.07089388 15.3705679 6.07089388 20.6447824 16.6949582 20.6447824 16.6949582 31.1932113 22.0123024 31.1932113 22.0123024 20.6447824 32.6310546 20.6447824"></polygon>
        </g>
        <g id="Group" transform="translate(35.000000, 12.000000)" fill-rule="nonzero">
            <path d="M19,2.4 C11.28125,2.4 4.15625,10.2 4.15625,22.2 C4.15625,37.0368 14.7499375,36 19,36 C23.2500625,36 33.84375,37.0368 33.84375,22.2 C33.84375,10.2 26.71875,2.4 19,2.4 Z" id="Shape" fill="#059BBF"></path>
            <path d="M4.15625,22.2 C4.15625,37.0368 14.7499375,36 19,36 L19,2.4 C11.28125,2.4 4.15625,10.2 4.15625,22.2 Z" id="Shape" fill="#21B2D1"></path>
            <path d="M24.740375,8.928 C22.165875,8.928 19.9559375,10.503 19,12.7512 C18.0440625,10.503 15.834125,8.928 13.259625,8.928 C9.80934375,8.928 7.01278125,11.754 7.01278125,15.2406 C7.01278125,18.7266 9.80934375,21.5532 13.259625,21.5532 C15.834125,21.5532 18.0440625,19.9782 19,17.73 C19.9559375,19.9782 22.165875,21.5532 24.740375,21.5532 C28.1906562,21.5532 30.9872187,18.7272 30.9872187,15.2406 C30.9872187,11.7546 28.1906562,8.928 24.740375,8.928 Z" id="Shape" fill="#6FDAF1"></path>
            <ellipse id="Oval" fill="#FACB1B" cx="19" cy="24.3486" rx="3.859375" ry="3.9"></ellipse>
            <path d="M15.140625,24.3486 C15.140625,26.5026 16.8684375,28.2486 19,28.2486 L19,20.4486 C16.8684375,20.4486 15.140625,22.1946 15.140625,24.3486 Z" id="Shape" fill="#FBE158"></path>
            <path d="M16.4629062,9.825 C17.5839062,10.5042 18.4792812,11.5266 19,12.7512 C19.5331875,11.4966 20.45825,10.4526 21.6178437,9.774 C21.5038437,8.2644 20.0645937,7.6026 20.0645937,7.6026 C20.0645937,7.6026 19.8419375,8.2026 19.5450625,9.1776 C19.1739687,7.3026 16.427875,6.4776 16.427875,6.4776 C16.427875,6.4776 16.5478125,7.3962 16.4629062,9.825 Z" id="Shape" fill="#3E3E3F"></path>
            <path d="M32.2625937,13.0614 C35.4391562,11.424 37.484625,5.8554 37.9210312,1.6014 C37.9625937,1.1958 37.8195,0.7932 37.5327187,0.507 C37.2459375,0.2208 36.8451562,0.0822 36.444375,0.129 C30.6291875,0.8136 27.40275,2.9454 26.2597812,4.8582 C28.7885625,6.6924 30.9118125,9.492 32.2625937,13.0614 Z" id="Shape" fill="#0484AB"></path>
            <path d="M31.0234375,3.6 C30.6962812,3.3108 35.3031875,1.143 36.0703125,1.875 C37.40625,3.15 33.1015625,9.45 33.1015625,9.45 C33.1015625,9.45 34.9819687,4.7004 34.2890625,3.825 C33.6953125,3.075 31.6171875,4.125 31.0234375,3.6 Z" id="Shape" fill="#6FDAF1"></path>
            <path d="M5.73740625,13.0614 C7.08759375,9.492 9.2114375,6.6924 11.7402187,4.8582 C10.5966562,2.946 7.3708125,0.8136 1.555625,0.129 C1.15484375,0.0816 0.75465625,0.2208 0.46728125,0.507 C0.17990625,0.7932 0.03740625,1.1958 0.07896875,1.6014 C0.515375,5.8554 2.56084375,11.4246 5.73740625,13.0614 Z" id="Shape" fill="#0484AB"></path>
            <path d="M10.8193125,33.6 C2.5044375,33.6 5.7629375,39.6678 8.16109375,37.2444 C8.83915625,38.7522 11.9254687,38.9322 12.8232187,37.2 C13.0429062,38.2224 13.7957812,38.4 14.513625,38.4 C18.1135312,38.4 17.1362187,33.6 10.8193125,33.6 Z" id="Shape" fill="#FFFFFF"></path>
            <path d="M27.1806875,33.6 C35.4955625,33.6 32.2370625,39.6678 29.8389063,37.2444 C29.1608438,38.7522 26.0745313,38.9322 25.1767813,37.2 C24.9570938,38.2224 24.2042188,38.4 23.486375,38.4 C19.8864688,38.4 20.8637813,33.6 27.1806875,33.6 Z" id="Shape" fill="#FFFFFF"></path>
            <path d="M21.671875,24.399 C21.671875,25.89 20.4754688,27.099 19,27.099 C17.5245312,27.099 16.328125,25.89 16.328125,24.399 L21.671875,24.399 L21.671875,24.399 Z" id="Shape" fill="#FA5655"></path>
            <ellipse id="Oval" fill="#FFFFFF" cx="13.3896562" cy="14.934" rx="3.8605625" ry="3.9012"></ellipse>
            <path d="M14.4506875,15.2544 C14.4506875,14.7888 14.8241562,14.412 15.2843125,14.412 C15.3193437,14.412 15.3525937,14.418 15.3864375,14.4222 C15.10975,13.6728 14.4008125,13.137 13.5630312,13.137 C12.4847812,13.137 11.6107812,14.0202 11.6107812,15.1098 C11.6107812,16.1994 12.4847812,17.0826 13.5630312,17.0826 C14.2850312,17.0826 14.907875,16.6824 15.2457187,16.0938 C14.8039687,16.0722 14.4506875,15.7062 14.4506875,15.2544 Z" id="Shape" fill="#3E3E3F"></path>
            <ellipse id="Oval" fill="#FFFFFF" cx="24.8704063" cy="14.934" rx="3.8605625" ry="3.9012"></ellipse>
            <path d="M25.9314375,15.2544 C25.9314375,14.7888 26.3043125,14.412 26.7650625,14.412 C26.8000938,14.412 26.8333438,14.418 26.8671875,14.4222 C26.5905,13.6728 25.8815625,13.137 25.0437813,13.137 C23.9655313,13.137 23.0915313,14.0202 23.0915313,15.1098 C23.0915313,16.1994 23.9655313,17.0826 25.0437813,17.0826 C25.7657813,17.0826 26.388625,16.6824 26.7264688,16.0938 C26.2847188,16.0722 25.9314375,15.7062 25.9314375,15.2544 Z" id="Shape" fill="#3E3E3F"></path>
            <path d="M6.9765625,3.6 C7.30371875,3.3108 2.6968125,1.143 1.9296875,1.875 C0.59375,3.15 4.8984375,9.45 4.8984375,9.45 C4.8984375,9.45 3.01803125,4.7004 3.7109375,3.825 C4.3046875,3.075 6.3828125,4.125 6.9765625,3.6 Z" id="Shape" fill="#6FDAF1"></path>
            <path d="M9.839625,13.3998 L16.9396875,13.3998 C16.3500938,12.0078 14.9826875,11.0328 13.3896563,11.0328 C11.796625,11.0322 10.4298125,12.0078 9.839625,13.3998 Z" id="Shape" fill="#21B2D1"></path>
            <path d="M21.320375,13.3998 L28.4204375,13.3998 C27.8308438,12.0078 26.4634375,11.0328 24.8704063,11.0328 C23.277375,11.0322 21.9105625,12.0078 21.320375,13.3998 Z" id="Shape" fill="#21B2D1"></path>
        </g>
        <g id="Group" transform="translate(50.000000, 31.000000)" fill-rule="nonzero">
            <path d="M45.9375,36.9558689 C45.4666406,35.9288033 44.6374687,35.110541 43.6077031,34.6574918 L32.15625,31.5624262 L24.5,31.5624262 L16.84375,31.5624262 L5.39229687,34.6574918 C4.36253125,35.110541 3.53335937,35.9288033 3.0625,36.9558689 L0,47 L49,47 L45.9375,36.9558689 Z" id="Shape" fill="#3E3E3F"></path>
            <path d="M26.5327344,30.7919344 L24.5,30.7919344 L22.4672656,30.7919344 C21.8118906,30.7919344 21.1879062,30.5107049 20.7522656,30.0183607 L16.84375,26.9394754 L16.84375,32.3606557 C16.84375,32.3606557 18.375,35.442623 24.5,35.442623 C30.625,35.442623 32.15625,32.3606557 32.15625,32.3606557 L32.15625,26.9394754 L28.2477344,30.0183607 C27.8120938,30.5099344 27.1881094,30.7919344 26.5327344,30.7919344 Z" id="Shape" fill="#F7B4B4"></path>
            <path d="M20.7522656,30.0175902 L16.84375,26.9394754 L16.84375,32.3606557 C16.84375,32.3606557 18.375,35.442623 24.5,35.442623 L24.5,30.7919344 L22.4672656,30.7919344 C21.8118906,30.7919344 21.1879062,30.5099344 20.7522656,30.0175902 Z" id="Shape" fill="#FBC8C8"></path>
            <path d="M37.515625,14.8103934 C37.515625,13.954377 36.75,13.0983607 35.984375,13.0983607 L35.21875,13.0983607 L35.21875,13.070623 C35.2049687,6.13619672 34.43475,0 24.5,0 C14.56525,0 13.7950313,6.13619672 13.78125,13.070623 L13.78125,19.2345574 L16.84375,26.9394754 L20.7522656,30.0183607 C21.1879063,30.5107049 21.8118906,30.7919344 22.4672656,30.7919344 L24.5,30.7919344 L26.5327344,30.7919344 C27.1881094,30.7919344 27.8120938,30.5107049 28.2477344,30.0183607 L32.15625,26.9394754 L34.6008906,20.7894098 C36.7798594,20.6422459 37.515625,17.3214262 37.515625,14.8103934 Z" id="Shape" fill="#FBC8C8"></path>
            <path d="M13.78125,13.070623 L13.78125,13.0983607 L13.015625,13.0983607 C12.25,13.0983607 11.484375,13.954377 11.484375,14.8103934 C11.484375,17.3214262 12.2201406,20.6414754 14.3991094,20.7894098 L16.84375,26.9394754 L20.7522656,30.0183607 C21.1879063,30.5107049 21.8118906,30.7919344 22.4672656,30.7919344 L24.5,30.7919344 L24.5,0 C14.56525,0 13.7950313,6.13619672 13.78125,13.070623 Z" id="Shape" fill="#FBD7D7"></path>
            <path d="M24.5,20.0327869 C24.5,20.0327869 19.90625,20.0327869 17.609375,21.5737705 C17.609375,26.9672131 21.4375,30.8196721 21.4375,30.8196721 L24.5,32.3606557 L27.5625,30.8196721 C27.5625,30.8196721 31.390625,26.9672131 31.390625,21.5737705 C29.09375,20.0327869 24.5,20.0327869 24.5,20.0327869 Z M26.03125,26.1967213 L25.265625,25.4262295 L24.5,25.4262295 L23.734375,25.4262295 L22.96875,26.1967213 L21.4375,26.1967213 L20.5317656,24.678082 C20.2477188,24.201918 20.2408281,23.6094098 20.512625,23.1263115 C20.7844219,22.6432131 21.2935625,22.3442623 21.8448125,22.3442623 L24.5,22.3442623 L27.1551875,22.3442623 C27.7072031,22.3442623 28.2155781,22.6432131 28.487375,23.1263115 C28.7591719,23.6094098 28.7515156,24.2026885 28.4682344,24.678082 L27.5625,26.1967213 L26.03125,26.1967213 Z" id="Shape" fill="#3E3E3F"></path>
            <path d="M27.0280937,41.3638525 C27.0725,41.3345738 27.0916406,41.2790984 27.0763281,41.2282459 C27.0610156,41.1773934 27.0143125,41.1419508 26.9614844,41.1419508 L24.1960469,41.1419508 L27.5272812,37.9605902 C27.5617344,37.925918 27.5716875,37.8742951 27.5533125,37.8288361 C27.5349375,37.783377 27.4905312,37.7540984 27.4422969,37.7540984 L24.2542344,37.7540984 C24.2174844,37.7540984 24.1822656,37.7710492 24.1592969,37.8010984 L20.8540937,41.9155246 C20.8257656,41.9517377 20.8211719,42.0018197 20.8410781,42.0426557 C20.8609844,42.0842623 20.9030937,42.110459 20.9490312,42.110459 L23.2336562,42.110459 L20.377875,45.2979836 C20.3380625,45.3434426 20.3380625,45.4120164 20.377875,45.4574754 C20.4176875,45.5029344 20.4850625,45.5121803 20.5348281,45.4782787 L27.0280937,41.3638525 Z" id="Shape" fill="#FBE158"></path>
            <path d="M22.0178437,14.6393443 C22.0178437,13.7887213 21.3318437,13.0983607 20.4865937,13.0983607 L20.482,13.0983607 C20.4827656,13.114541 20.4865937,13.1299508 20.4865937,13.1461311 C20.4865937,13.9959836 19.8036562,14.6840328 18.9599375,14.6871148 C18.9852031,15.5153934 19.6566562,16.1803279 20.4865937,16.1803279 C21.3318437,16.1803279 22.0178437,15.4899672 22.0178437,14.6393443 Z" id="Shape" fill="#3E3E3F"></path>
            <path d="M29.6687344,14.6393443 C29.6687344,13.7887213 28.9827344,13.0983607 28.1374844,13.0983607 L28.1328906,13.0983607 C28.1336562,13.114541 28.1374844,13.1299508 28.1374844,13.1461311 C28.1374844,13.9959836 27.4545469,14.6840328 26.6108281,14.6871148 C26.6368594,15.5153934 27.3083125,16.1803279 28.1374844,16.1803279 C28.9835,16.1803279 29.6687344,15.4899672 29.6687344,14.6393443 Z" id="Shape" fill="#3E3E3F"></path>
            <path d="M24.5,0 C17.878875,0 15.3301094,2.72754098 14.3615937,6.5984918 C18.375,2.31147541 20.671875,6.93442623 24.5,6.93442623 C28.328125,6.93442623 30.625,2.31147541 34.6384062,6.5984918 C33.6698906,2.72754098 31.121125,0 24.5,0 Z" id="Shape" fill="#3E3E3F"></path>
            <ellipse id="Oval" fill="#3E3E3F" cx="35.6015625" cy="19.647541" rx="1.1484375" ry="1.1557377"></ellipse>
        </g>
        <g id="Group" transform="translate(8.000000, 29.000000)">
            <path d="M20.7522656,32.5130323 L16.84375,29.4193548 L16.84375,34.0645161 L5.39229688,37.1744516 C4.36253125,37.6304516 3.53335937,38.451871 3.0625,39.483871 L0,48 L24.5,48 L24.5,33.2903226 L22.4672656,33.2903226 C21.8118906,33.2903226 21.1879063,33.0077419 20.7522656,32.5130323 Z" id="Shape" fill="#BF8662" fill-rule="nonzero"></path>
            <path d="M45.9375,39.483871 C45.4666406,38.451871 44.6374688,37.6304516 43.6077031,37.1744516 L32.15625,34.0645161 L32.15625,29.4193548 L28.2477344,32.5130323 C27.8120938,33.0077419 27.1881094,33.2903226 26.5327344,33.2903226 L24.5,33.2903226 L24.5,48 L49,48 L45.9375,39.483871 Z" id="Shape" fill="#AF7653" fill-rule="nonzero"></path>
            <path d="M37.515625,17.2327742 C37.515625,16.3726452 36.75,15.5125161 35.984375,15.5125161 C35.21875,15.5125161 35.21875,16.3726452 35.21875,16.3726452 L35.21875,15.5125161 C35.2049687,8.54477419 34.43475,3.8996129 24.5,3.8996129 C14.56525,3.8996129 13.7950313,8.54477419 13.78125,15.5125161 L13.78125,21.6774194 L16.84375,29.4193548 L20.7522656,32.5130323 C21.1879063,33.0077419 21.8118906,33.2903226 22.4672656,33.2903226 L24.5,33.2903226 L26.5327344,33.2903226 C27.1881094,33.2903226 27.8120938,33.0077419 28.2477344,32.5130323 L32.15625,29.4193548 L34.6008906,23.2397419 C36.7798594,23.091871 37.515625,19.755871 37.515625,17.2327742 Z" id="Shape" fill="#BF8662" fill-rule="nonzero"></path>
            <path d="M13.78125,15.5117419 L13.78125,16.371871 C13.78125,16.371871 13.78125,15.5117419 13.015625,15.5117419 C12.25,15.5117419 11.484375,16.371871 11.484375,17.232 C11.484375,19.7550968 12.2201406,23.0910968 14.3991094,23.2397419 L16.84375,29.4193548 L20.7522656,32.5130323 C21.1879063,33.0077419 21.8118906,33.2903226 22.4672656,33.2903226 L24.5,33.2903226 L24.5,3.89883871 C14.56525,3.89883871 13.7950313,8.544 13.78125,15.5117419 Z" id="Shape" fill="#CC9978" fill-rule="nonzero"></path>
            <path d="M20.671875,24.8020645 L28.328125,24.8020645 C28.328125,24.8020645 28.328125,27.1246452 24.5,27.1246452 C20.671875,27.1246452 20.671875,24.8020645 20.671875,24.8020645 Z" id="Shape" fill="#84462D" fill-rule="nonzero"></path>
            <path d="M39.046875,35.6129032 C39.046875,35.6129032 36.8372813,35.1390968 35.984375,34.8387097 C35.0824688,42.7927742 33.1661094,44.1298065 24.5,44.1298065 C15.8338906,44.1298065 13.9175312,42.7927742 13.015625,34.8387097 C12.1627188,35.1390968 9.953125,35.6129032 9.953125,35.6129032 L8.421875,48 L24.5,48 L40.578125,48 L39.046875,35.6129032 Z" id="Shape" fill="#FFFFFF" fill-rule="nonzero"></path>
            <path d="M1.91865625,40.6947097 C1.92401562,40.6885161 1.929375,40.6830968 1.93396875,40.6769032 C1.93014062,40.6776774 1.92784375,40.6776774 1.92401562,40.6776774 C1.92171875,40.683871 1.92095312,40.6885161 1.91865625,40.6947097 Z" id="Shape"></path>
            <path d="M24.6125469,44.5703226 L15.7894844,34.3470968 C15.6501406,34.1860645 15.6669844,33.9414194 15.8262344,33.8005161 C15.9854844,33.6596129 16.2274219,33.6766452 16.366,33.8376774 L24.604125,43.3834839 L32.6294062,33.8415484 C32.7664531,33.6789677 33.007625,33.6588387 33.1691719,33.7974194 C33.3299531,33.936 33.3498594,34.179871 33.2128125,34.3432258 L24.6125469,44.5703226 Z" id="Shape" fill="#FACB1B" fill-rule="nonzero"></path>
            <ellipse id="Oval" fill="#FACB1B" fill-rule="nonzero" cx="24.5" cy="44.8343226" rx="3.0625" ry="3.09677419"></ellipse>
            <rect id="Rectangle-path" fill="#F3B607" fill-rule="nonzero" x="36.0930937" y="19.9772903" width="2.296875" height="2.32258065"></rect>
            <path d="M26.1675313,43.772129 C26.1675313,43.9803871 26.0488594,44.1507097 25.8367813,44.1507097 C25.4999063,44.1507097 25.2572031,43.5135484 24.6829844,43.5135484 C24.5022969,43.5135484 24.3461094,43.6018065 24.3461094,43.803871 C24.3461094,44.4092903 26.2479219,44.0500645 26.2479219,45.500129 C26.2479219,46.3261935 25.3628594,46.7674839 24.9073125,46.8054194 C24.7580156,46.8178065 24.7763906,46.868129 24.7763906,47.019871 C24.7763906,47.3287742 24.7580156,47.3225806 24.4525313,47.3225806 C24.1654219,47.3225806 24.0911563,47.3667097 24.0911563,47.0454194 C24.0911563,46.9447742 24.1225469,46.8247742 23.99775,46.8123871 C23.7611719,46.7806452 23.2742344,46.6738065 23.0935469,46.5414194 C22.8753438,46.3772903 22.7505469,45.816 22.7505469,45.5643871 C22.7505469,45.4196129 22.8125625,45.267871 22.974875,45.267871 C23.4051563,45.267871 23.317875,46.1504516 24.2840938,46.1504516 C24.4211406,46.1504516 24.7396406,46.0877419 24.7396406,45.8794839 C24.7396406,45.6905806 24.68375,45.6526452 24.01,45.4064516 C23.4426719,45.2043871 22.8500781,44.8072258 22.8500781,44.1267097 C22.8500781,43.4965161 23.3553906,42.9917419 23.9472188,42.8717419 C24.1095313,42.84 24.0903906,42.8214194 24.0903906,42.6510968 C24.0903906,42.336 24.1087656,42.3483871 24.41425,42.3483871 C24.7074844,42.3483871 24.775625,42.3042581 24.775625,42.6255484 C24.775625,42.7138065 24.7442344,42.84 24.8567813,42.8647742 C24.9379375,42.8771613 25.2495469,42.9592258 25.2870625,42.9592258 C25.3620938,42.9592258 25.4555,42.8965161 25.5672813,42.8965161 C25.8000313,42.8957419 26.1675313,43.3811613 26.1675313,43.772129 Z" id="Shape" fill="#FBEC9A" fill-rule="nonzero"></path>
            <polygon id="Shape" fill="#FBE158" fill-rule="nonzero" points="36.0930937 22.299871 38.3899687 19.9772903 36.0930937 19.9772903"></polygon>
            <g transform="translate(13.781250, 13.161290)" id="Shape" fill-rule="nonzero">
                <path d="M16.84375,0.0278709677 L10.71875,0.0278709677 L4.59375,0.0278709677 C4.59375,0.0278709677 0,-0.422709677 0,3.12464516 C0,6.22141935 2.296875,8.544 4.59375,8.544 C8.6699375,8.544 8.71204687,4.67303226 10.71875,4.67303226 C12.7269844,4.67303226 12.7660313,8.544 16.84375,8.544 C19.140625,8.544 21.4375,6.22141935 21.4375,3.12464516 C21.4375,-0.421935484 16.84375,0.0278709677 16.84375,0.0278709677 Z M11.4330781,3.20206452 L10.0036562,3.20206452 C10.0036562,3.20206452 10.0036562,1.75664516 8.58495312,1.57703226 L10.71875,1.57703226 L12.8517812,1.57703226 C11.4330781,1.75664516 11.4330781,3.20206452 11.4330781,3.20206452 Z" fill="#3E3E3F"></path>
                <path d="M4.95129688,1.76903226 C4.95129688,1.76903226 1.42942188,1.46709677 1.42942188,3.84232258 C1.42942188,5.05625806 2.03503125,6.08980645 2.88870313,6.74012903 L7.95484375,1.76903226 L4.95129688,1.76903226 Z" fill="#5B5C5F"></path>
                <path d="M16.384375,1.76903226 C16.384375,1.76903226 12.8625,1.46709677 12.8625,3.84232258 C12.8625,5.05625806 13.4681094,6.08980645 14.3217813,6.74012903 L19.3879219,1.76903226 L16.384375,1.76903226 Z" fill="#5B5C5F"></path>
            </g>
            <g transform="translate(6.890625, 0.000000)" id="Shape" fill-rule="nonzero">
                <path d="M8.3943125,8.36051613 L1.79309375,10.4562581 C-0.009953125,11.136 -0.01990625,12.2740645 1.77089062,12.9855484 L6.2995625,14.7847742 C12.8157969,17.2885161 21.4168281,16.8224516 26.8627187,13.4229677 L8.3943125,8.36051613 Z" fill="#FA5655"></path>
                <path d="M29.0899219,6.31432258 C29.2981719,4.97341935 20.874,0.392516129 18.816,0.0658064516 C16.758,-0.260903226 8.03753125,1.60103226 7.82928125,2.94116129 L6.17476563,9.07354839 C5.96651563,10.4144516 10.8642188,12.3042581 17.1140156,13.296 C23.3638125,14.2877419 28.5983906,14.0043871 28.8066406,12.6642581 L29.0899219,6.31432258 Z" fill="#3E3E3F"></path>
                <path d="M13.4290625,4.896 C13.4290625,4.896 11.263875,5.26296774 11.0487344,6.65032258 C10.8335937,8.03767742 12.5685,10.443871 12.5685,10.443871 C12.5685,10.443871 14.9488281,8.68954839 15.1639687,7.30296774 C15.3791094,5.9156129 13.4290625,4.896 13.4290625,4.896 Z" fill="#F3B607"></path>
            </g>
        </g>
        <g id="Group" transform="translate(31.000000, 51.000000)" fill-rule="nonzero">
            <path d="M45.9375,39.6190476 C45.4666406,38.6034286 44.6374687,37.7942857 43.6077031,37.3462857 L32.15625,34.2857143 L32.15625,29.7097143 L28.2477344,32.7542857 C27.8120937,33.2411429 27.1881094,33.5192381 26.5327344,33.5192381 L24.5,33.5192381 L22.4672656,33.5192381 C21.8118906,33.5192381 21.1879062,33.2411429 20.7522656,32.7542857 L16.84375,29.7097143 L16.84375,34.2857143 L5.39229687,37.3462857 C4.36253125,37.7942857 3.53335937,38.6034286 3.0625,39.6190476 L0,48 L24.5,48 L49,48 L45.9375,39.6190476 Z" id="Shape" fill="#0484AB"></path>
            <path d="M2.00134375,42.5234286 L0,48 L24.5,48 L49,48 L47.3592656,43.5093333 C42.8413125,40.7565714 33.9577656,38.8845714 23.734375,38.8845714 C14.78575,38.8845714 6.86842187,40.32 2.00134375,42.5234286 Z" id="Shape" fill="#21B2D1"></path>
            <path d="M32.921875,34.4952381 C32.921875,34.2940952 32.7580313,34.1302857 32.5551406,34.1302857 C32.3530156,34.1302857 32.1891719,34.2933333 32.1891719,34.4952381 C32.1891719,36.4952381 28.4062188,38.840381 25.8360156,40.1417143 C25.4501406,39.4171429 24.9754531,38.8678095 24.5,38.8678095 C24.0245469,38.8678095 23.5498594,39.4171429 23.1639844,40.1417143 C20.5937813,38.8411429 16.8100625,36.496 16.8100625,34.4952381 C16.8100625,34.2940952 16.6462188,34.1302857 16.4440938,34.1302857 C16.2419688,34.1302857 16.0773594,34.2933333 16.0773594,34.4952381 C16.0773594,37.0384762 20.4651563,39.5969524 22.8554375,40.8015238 C22.5193281,41.6175238 22.3034219,42.5059048 22.3034219,43.0666667 C22.3034219,44.3314286 22.3041875,46.8838095 24.5,46.8838095 C26.6958125,46.8838095 26.6973438,44.3314286 26.6973438,43.0666667 C26.6973438,42.5059048 26.4806719,41.6167619 26.1445625,40.8007619 C28.5356094,39.5961905 32.921875,37.0384762 32.921875,34.4952381 Z" id="Shape" fill="#FFFFFF"></path>
            <ellipse id="Oval" fill="#F37A10" cx="24.5" cy="43.9695238" rx="1.46464062" ry="1.45752381"></ellipse>
            <path d="M35.984375,15.9977143 C35.21875,15.9977143 35.21875,16.8441905 35.21875,16.8441905 L35.21875,14.471619 C35.2164531,13.2167619 35.1873594,12.0388571 35.0824687,10.9500952 C28.5340781,13.0361905 18.7470938,12.9112381 14.3524063,8.49371429 C13.8754219,10.1805714 13.7858437,12.199619 13.78125,14.4708571 L13.78125,22.0899048 L16.84375,29.7089524 L20.7522656,32.7535238 C21.1879063,33.240381 21.8118906,33.5184762 22.4672656,33.5184762 L24.5,33.5184762 L26.5327344,33.5184762 C27.1881094,33.5184762 27.8120937,33.240381 28.2477344,32.7535238 L32.15625,29.7097143 L34.6116094,23.6015238 C36.7821562,23.4460952 37.515625,20.1699048 37.515625,17.6906667 C37.515625,16.8441905 36.75,15.9977143 35.984375,15.9977143 Z" id="Shape" fill="#FBC8C8"></path>
            <path d="M14.3524063,8.49447619 C13.8754219,10.1813333 13.7858438,12.200381 13.78125,14.471619 L13.78125,16.8441905 C13.78125,16.8441905 13.78125,15.9977143 13.015625,15.9977143 C12.25,15.9977143 11.484375,16.8441905 11.484375,17.6906667 C11.484375,20.1691429 12.2178438,23.4460952 14.3883906,23.6015238 L16.84375,29.7097143 L20.7522656,32.7542857 C21.1879063,33.2411429 21.8118906,33.5192381 22.4672656,33.5192381 L24.5,33.5192381 L24.5,12.2019048 C20.4628594,11.9504762 16.6622969,10.816 14.3524063,8.49447619 Z" id="Shape" fill="#FBD7D7"></path>
            <path d="M22.203125,17.5192381 C22.203125,16.6780952 21.517125,15.9954286 20.671875,15.9954286 L20.6672812,15.9954286 C20.6680469,16.0121905 20.671875,16.0274286 20.671875,16.0434286 C20.671875,16.8838095 19.9889375,17.5641905 19.1452187,17.5672381 C19.1704844,18.3862857 19.8419375,19.0438095 20.671875,19.0438095 C21.517125,19.0430476 22.203125,18.3611429 22.203125,17.5192381 Z" id="Shape" fill="#3E3E3F"></path>
            <path d="M29.8547813,17.5192381 C29.8547813,16.6780952 29.1687813,15.9954286 28.3235313,15.9954286 L28.3189375,15.9954286 C28.3197031,16.0114286 28.3235313,16.0266667 28.3235313,16.0426667 C28.3235313,16.8830476 27.6405937,17.5634286 26.796875,17.5664762 C26.8221406,18.3855238 27.4935937,19.0430476 28.3235313,19.0430476 C29.1687813,19.0430476 29.8547813,18.3611429 29.8547813,17.5192381 Z" id="Shape" fill="#3E3E3F"></path>
            <path d="M20.671875,25.1382857 L28.328125,25.1382857 C28.328125,25.1382857 28.328125,27.424 24.5,27.424 C20.671875,27.424 20.671875,25.1382857 20.671875,25.1382857 Z" id="Shape" fill="#F79392"></path>
            <path d="M39.8125,8.57980952 C38.3493906,-2.00152381 14.6073594,-2.8952381 13.8187656,6.46780952 C12.887,6.99047619 12.25,7.97257143 12.25,9.11314286 L12.25,15.9977143 C13.78125,16.759619 13.78125,17.5070476 13.78125,18.8868571 L13.78125,19.7798095 L15.3125,19.7798095 L15.3125,9.32495238 C19.7025938,12.6506667 27.6796406,12.8784762 33.6875,11.3462857 L33.6875,19.7798095 L35.21875,19.7798095 L35.21875,18.8868571 C35.21875,17.5070476 35.21875,16.759619 36.75,15.9977143 L36.75,10.3413333 C37.9658125,9.83314286 39.0131875,9.24038095 39.8125,8.57980952 Z" id="Shape" fill="#F3B607"></path>
            <path d="M24.5,0.0167619048 C19.0533438,0.176761905 14.1694219,2.30704762 13.8187656,6.46780952 C12.887,6.99047619 12.25,7.97257143 12.25,9.11314286 L12.25,15.9977143 C13.78125,16.759619 13.78125,17.5070476 13.78125,18.8868571 L13.78125,19.7798095 L15.3125,19.7798095 L15.3125,9.32495238 C17.6415312,11.0895238 20.9819531,11.9748571 24.5,12.1950476 L24.5,0.0167619048 Z" id="Shape" fill="#FACB1B"></path>
        </g>
    </g>
</svg>